<mxfile host="app.diagrams.net" modified="2024-01-15T13:01:57.300Z" agent="Mozilla/5.0 (X11; Linux x86_64; Chromium GOST) AppleWebKit/537.36 (KHTML, like Gecko) Chrome/110.0.0.0 Safari/537.36" etag="k58yAraSI2WZ9vSPr4Ip" version="22.1.18" type="github">
  <diagram name="Провода" id="9ix1DV9uNshWTJQ2-RFP">
    <mxGraphModel dx="2593" dy="1344" grid="0" gridSize="10" guides="1" tooltips="1" connect="1" arrows="1" fold="1" page="0" pageScale="1" pageWidth="827" pageHeight="1169" math="0" shadow="0">
      <root>
        <mxCell id="0" />
        <mxCell id="1" parent="0" />
        <mxCell id="2_Owt2D0Y6Xb2MZBWKSP-2" value="StageWindow.tsx" style="rounded=1;whiteSpace=wrap;html=1;glass=0;fillColor=#f8cecc;strokeColor=#b85450;" vertex="1" parent="1">
          <mxGeometry x="-145" y="-13" width="120" height="38" as="geometry" />
        </mxCell>
        <mxCell id="2_Owt2D0Y6Xb2MZBWKSP-20" value="AcNetworkRoute.tsx" style="rounded=1;whiteSpace=wrap;html=1;glass=0;fillColor=#f8cecc;strokeColor=#b85450;" vertex="1" parent="1">
          <mxGeometry x="-548" y="-164" width="136" height="38" as="geometry" />
        </mxCell>
        <mxCell id="2_Owt2D0Y6Xb2MZBWKSP-21" style="edgeStyle=orthogonalEdgeStyle;rounded=0;orthogonalLoop=1;jettySize=auto;html=1;entryX=0.5;entryY=0;entryDx=0;entryDy=0;" edge="1" parent="1" source="2_Owt2D0Y6Xb2MZBWKSP-22" target="2_Owt2D0Y6Xb2MZBWKSP-24">
          <mxGeometry relative="1" as="geometry" />
        </mxCell>
        <mxCell id="2_Owt2D0Y6Xb2MZBWKSP-22" value="this.group.on(&#39;contextmenu&#39;,&amp;nbsp; ...)" style="rounded=1;whiteSpace=wrap;html=1;" vertex="1" parent="1">
          <mxGeometry x="-577" y="-104" width="194" height="30" as="geometry" />
        </mxCell>
        <mxCell id="2_Owt2D0Y6Xb2MZBWKSP-23" style="edgeStyle=orthogonalEdgeStyle;rounded=0;orthogonalLoop=1;jettySize=auto;html=1;" edge="1" parent="1" source="2_Owt2D0Y6Xb2MZBWKSP-24" target="2_Owt2D0Y6Xb2MZBWKSP-26">
          <mxGeometry relative="1" as="geometry" />
        </mxCell>
        <mxCell id="2_Owt2D0Y6Xb2MZBWKSP-24" value="this.deleteWire()" style="rounded=1;whiteSpace=wrap;html=1;" vertex="1" parent="1">
          <mxGeometry x="-537" y="-52" width="114" height="30" as="geometry" />
        </mxCell>
        <mxCell id="2_Owt2D0Y6Xb2MZBWKSP-30" style="edgeStyle=orthogonalEdgeStyle;rounded=0;orthogonalLoop=1;jettySize=auto;html=1;entryX=0.5;entryY=0;entryDx=0;entryDy=0;" edge="1" parent="1" source="2_Owt2D0Y6Xb2MZBWKSP-26" target="2_Owt2D0Y6Xb2MZBWKSP-29">
          <mxGeometry relative="1" as="geometry" />
        </mxCell>
        <mxCell id="2_Owt2D0Y6Xb2MZBWKSP-26" value="this.dispose();" style="rounded=1;whiteSpace=wrap;html=1;" vertex="1" parent="1">
          <mxGeometry x="-533" y="-1" width="106" height="30" as="geometry" />
        </mxCell>
        <mxCell id="2_Owt2D0Y6Xb2MZBWKSP-28" value="&lt;b&gt;&lt;font style=&quot;font-size: 14px;&quot;&gt;&amp;nbsp; Удаление провода&lt;/font&gt;&lt;/b&gt;" style="text;html=1;align=left;verticalAlign=middle;resizable=0;points=[];autosize=1;strokeColor=#6c8ebf;fillColor=#dae8fc;strokeWidth=0;fontSize=10;" vertex="1" parent="1">
          <mxGeometry x="-559.5" y="-215" width="159" height="29" as="geometry" />
        </mxCell>
        <mxCell id="2_Owt2D0Y6Xb2MZBWKSP-32" style="edgeStyle=orthogonalEdgeStyle;rounded=0;orthogonalLoop=1;jettySize=auto;html=1;entryX=0;entryY=0.5;entryDx=0;entryDy=0;" edge="1" parent="1" source="2_Owt2D0Y6Xb2MZBWKSP-29" target="2_Owt2D0Y6Xb2MZBWKSP-31">
          <mxGeometry relative="1" as="geometry" />
        </mxCell>
        <mxCell id="2_Owt2D0Y6Xb2MZBWKSP-29" value="this.routePoints.parent.deleteWireInList(this.id);" style="rounded=1;whiteSpace=wrap;html=1;" vertex="1" parent="1">
          <mxGeometry x="-617" y="52" width="274" height="30" as="geometry" />
        </mxCell>
        <mxCell id="2_Owt2D0Y6Xb2MZBWKSP-35" style="edgeStyle=orthogonalEdgeStyle;rounded=0;orthogonalLoop=1;jettySize=auto;html=1;entryX=0;entryY=0.5;entryDx=0;entryDy=0;" edge="1" parent="1" source="2_Owt2D0Y6Xb2MZBWKSP-31" target="2_Owt2D0Y6Xb2MZBWKSP-34">
          <mxGeometry relative="1" as="geometry" />
        </mxCell>
        <mxCell id="2_Owt2D0Y6Xb2MZBWKSP-31" value="&amp;nbsp; field.registerDeleteInWireInList((value: string) =&amp;gt; { &lt;span style=&quot;white-space: pre;&quot;&gt;&#x9;&lt;/span&gt;dispatch(acNetworksRedactorDeleteWireInList(value)); &lt;br&gt;&amp;nbsp; });" style="rounded=1;whiteSpace=wrap;html=1;align=left;" vertex="1" parent="1">
          <mxGeometry x="-263" y="39.5" width="356" height="55" as="geometry" />
        </mxCell>
        <mxCell id="2_Owt2D0Y6Xb2MZBWKSP-33" value="alternateNetworkReducer.ts" style="rounded=1;whiteSpace=wrap;html=1;glass=0;fillColor=#f8cecc;strokeColor=#b85450;" vertex="1" parent="1">
          <mxGeometry x="236" y="-13" width="172" height="38" as="geometry" />
        </mxCell>
        <mxCell id="2_Owt2D0Y6Xb2MZBWKSP-34" value="&amp;nbsp; addedWires: state.redactorState.addedWires.filter(&lt;br&gt;&lt;span style=&quot;white-space: pre;&quot;&gt;&#x9;&lt;/span&gt;(item) =&amp;gt; item.id !== id&lt;br&gt;&amp;nbsp; )," style="rounded=1;whiteSpace=wrap;html=1;align=left;" vertex="1" parent="1">
          <mxGeometry x="175" y="39.5" width="294" height="55" as="geometry" />
        </mxCell>
      </root>
    </mxGraphModel>
  </diagram>
</mxfile>
